<?xml version="1.0" encoding="UTF-8"?>
<!-- Generated by Pixelmator Pro 2.4.5 -->
<svg width="410" height="404" viewBox="0 0 410 404" xmlns="http://www.w3.org/2000/svg" xmlns:xlink="http://www.w3.org/1999/xlink">
    <linearGradient id="linearGradient1" x1="6.00017" y1="32.9999" x2="235" y2="344" gradientUnits="userSpaceOnUse">
        <stop offset="0" stop-color="#a12e3a" stop-opacity="1"/>
        <stop offset="0.99999" stop-color="#ed230d" stop-opacity="1"/>
    </linearGradient>
    <path id="Path" fill="url(#linearGradient1)" stroke="none" d="M 399.640991 59.524597 L 215.643005 388.545013 C 211.843994 395.338013 202.084 395.377991 198.227997 388.618011 L 10.5817 59.556305 C 6.38087 52.189606 12.6802 43.26651 21.028099 44.758606 L 205.223007 77.682404 C 206.397995 77.892395 207.600998 77.890411 208.776001 77.6763 L 389.118988 44.805786 C 397.438995 43.289398 403.768005 52.143402 399.640991 59.524597 Z"/>
    <linearGradient id="linearGradient2" x1="177.105607" y1="-62.023782" x2="220.006298" y2="406.670181" gradientUnits="userSpaceOnUse">
        <stop offset="1e-05" stop-color="#ffea83" stop-opacity="1"/>
        <stop offset="0.083333" stop-color="#ffdd35" stop-opacity="1"/>
        <stop offset="1" stop-color="#ffa800" stop-opacity="1"/>
    </linearGradient>
    <path id="RK" fill="url(#linearGradient2)" fill-rule="evenodd" stroke="none" d="M 167.035156 379.861328 L 149.533203 213.333984 L 180.947266 210.03125 L 188.123047 278.308594 L 195.025391 277.582031 L 231.876953 204.677734 L 267.337891 200.951172 L 267.488281 202.378906 L 224.458984 287.476563 L 224.908203 291.759766 L 287.546875 365.751953 L 287.697266 367.179688 L 250.808594 371.056641 L 198.175781 307.556641 L 191.275391 308.283203 L 198.451172 376.558594 L 167.035156 379.861328 Z M 147.576172 203.875 L 130.074219 37.347656 L 193.855469 30.644531 C 202.423141 29.744019 210.084702 30.140686 216.839844 31.835938 C 223.594986 33.531189 229.374756 36.251831 234.179688 39.996094 C 238.984604 43.740387 242.828873 48.267029 245.712891 53.576172 C 248.596909 58.885345 250.372284 64.710754 251.039063 71.054688 L 251.638672 76.765625 C 252.355453 83.585358 251.201843 90.159241 248.177734 96.490234 C 245.153625 102.821198 240.001099 107.9729 232.71875 111.945313 L 233.167969 116.228516 C 238.787781 116.279236 243.416779 117.957764 247.052734 121.263672 C 250.688705 124.56958 252.797424 128.997864 253.380859 134.548828 L 259.431641 192.119141 L 228.017578 195.421875 L 222.765625 145.462891 C 222.365555 141.656494 221.049713 138.668579 218.816406 136.498047 C 216.583099 134.327515 213.165634 133.483215 208.564453 133.966797 L 172.390625 137.769531 L 178.992188 200.574219 L 147.576172 203.875 Z M 169.240234 107.794922 L 199.226563 104.642578 C 206.8423 103.842133 212.445633 101.448242 216.037109 97.462891 C 219.628571 93.477509 221.081879 88.234955 220.398438 81.732422 L 220.099609 78.876953 C 219.516174 73.326019 217.02832 68.736755 212.636719 65.109375 C 208.245117 61.482025 202.240723 60.068695 194.625 60.869141 L 164.638672 64.021484 L 169.240234 107.794922 Z"/>
</svg>
